# xmcd
#
# Track frame offsets:
#       150
#       18747
#       45740
#       62572
#
# Disc length: 1043 seconds
#
# Revision: 1
# Processed by: cddbd v1.4PL0 Copyright (c) Steve Scherf et al.
# Submitted via: MusiCat 1.1
#
DISCID=2f041104
DTITLE=Various Artist - The Okeh Sampler
DYEAR=1900
DGENRE=
TTITLE0=G Love and Special Sauce - Sweet Sugar Mama
TTITLE1=Anders Osborne - Whats going on here
TTITLE2=Popa Chubby - Palace of the King
TTITLE3=Keb "Mo'  - She just wants to dance
EXTD=0\n\n\nsubmitted by Stamppot
EXTT0=
EXTT1=
EXTT2=
EXTT3=
PLAYORDER=
